<svg width="60" height="60" viewBox="0 0 60 60" fill="none" xmlns="http://www.w3.org/2000/svg">
<path d="M58 40C58 38.9391 57.5786 37.9217 56.8284 37.1716C56.0783 36.4214 55.0609 36 54 36C52.9391 36 51.9217 36.4214 51.1716 37.1716C50.4214 37.9217 50 38.9391 50 40V48C50 48.5304 49.7893 49.0391 49.4142 49.4142C49.0391 49.7893 48.5304 50 48 50H40C38.9391 50 37.9217 50.4214 37.1716 51.1716C36.4214 51.9217 36 52.9391 36 54C36 55.0609 36.4214 56.0783 37.1716 56.8284C37.9217 57.5786 38.9391 58 40 58H48C50.6522 58 53.1957 56.9464 55.0711 55.0711C56.9464 53.1957 58 50.6522 58 48V40Z" fill="black"/>
<path d="M12 2C9.34784 2 6.8043 3.05357 4.92893 4.92893C3.05357 6.8043 2 9.34784 2 12V20C2 21.0609 2.42143 22.0783 3.17157 22.8284C3.92172 23.5786 4.93913 24 6 24C7.06087 24 8.07828 23.5786 8.82843 22.8284C9.57857 22.0783 10 21.0609 10 20V12C10 11.4696 10.2107 10.9609 10.5858 10.5858C10.9609 10.2107 11.4696 10 12 10H20C21.0609 10 22.0783 9.57857 22.8284 8.82843C23.5786 8.07828 24 7.06087 24 6C24 4.93913 23.5786 3.92172 22.8284 3.17157C22.0783 2.42143 21.0609 2 20 2H12Z" fill="black"/>
<path d="M4 60C4.52544 60.0004 5.04582 59.8973 5.5314 59.6965C6.01698 59.4958 6.45825 59.2013 6.83 58.83L18 47.66V53C18 54.0609 18.4214 55.0783 19.1716 55.8284C19.9217 56.5786 20.9391 57 22 57C23.0609 57 24.0783 56.5786 24.8284 55.8284C25.5786 55.0783 26 54.0609 26 53V42C26 39.8783 25.1571 37.8434 23.6569 36.3431C22.1566 34.8429 20.1217 34 18 34H7C5.93913 34 4.92172 34.4214 4.17157 35.1716C3.42143 35.9217 3 36.9391 3 38C3 39.0609 3.42143 40.0783 4.17157 40.8284C4.92172 41.5786 5.93913 42 7 42H12.34L1.17 53.17C0.609954 53.7294 0.228484 54.4424 0.0738821 55.2188C-0.0807194 55.9951 -0.00150096 56.7999 0.301509 57.5312C0.604519 58.2625 1.1177 58.8874 1.77607 59.3269C2.43445 59.7664 3.20842 60.0006 4 60Z" fill="black"/>
<path d="M58.83 1.17C58.4585 0.798098 58.0174 0.503063 57.5318 0.301765C57.0462 0.100468 56.5257 -0.00314331 56 -0.00314331C55.4743 -0.00314331 54.9538 0.100468 54.4682 0.301765C53.9826 0.503063 53.5415 0.798098 53.17 1.17L42 12.34V7C42 5.93914 41.5786 4.92172 40.8284 4.17158C40.0783 3.42143 39.0609 3 38 3C36.9391 3 35.9217 3.42143 35.1716 4.17158C34.4214 4.92172 34 5.93914 34 7V18C34 20.1217 34.8429 22.1566 36.3431 23.6569C37.8434 25.1571 39.8783 26 42 26H53C54.0609 26 55.0783 25.5786 55.8284 24.8284C56.5786 24.0783 57 23.0609 57 22C57 20.9391 56.5786 19.9217 55.8284 19.1716C55.0783 18.4214 54.0609 18 53 18H47.66L58.83 6.83C59.2019 6.45851 59.4969 6.01736 59.6982 5.53176C59.8995 5.04617 60.0031 4.52567 60.0031 4C60.0031 3.47434 59.8995 2.95383 59.6982 2.46824C59.4969 1.98265 59.2019 1.5415 58.83 1.17Z" fill="black"/>
<circle cx="30.5" cy="30.5" r="2.5" fill="black"/>
</svg>
