<svg width="65" height="66" viewBox="0 0 65 66" fill="none" xmlns="http://www.w3.org/2000/svg">
<path d="M35.7401 0C34.5994 0.00423182 33.4602 0.0844089 32.3301 0.24C31.2035 0.0829297 30.0676 0.00274452 28.9301 0C20.5901 0 13.0501 4.05 7.77012 10.51C7.71558 10.5559 7.66837 10.6098 7.63012 10.67C5.91793 12.8021 4.47381 15.1362 3.33012 17.62C3.29536 17.6725 3.26841 17.7298 3.25012 17.79C2.43075 19.5848 1.76178 21.4445 1.25012 23.35C1.20501 23.4623 1.17476 23.5799 1.16012 23.7C0.38918 26.7059 -0.000546297 29.7968 0.000117376 32.9C-0.0120536 37.702 0.922424 42.4594 2.75012 46.9C2.76401 46.9428 2.78423 46.9832 2.81012 47.02C3.83601 49.5038 5.15897 51.8543 6.75012 54.02C6.78352 54.078 6.82382 54.1317 6.87012 54.18C8.42406 56.2568 10.2314 58.1313 12.2501 59.76C12.3071 59.8175 12.3709 59.8679 12.4401 59.91C17.1126 63.6965 22.9361 65.7775 28.9501 65.81C30.0876 65.8073 31.2235 65.7271 32.3501 65.57C33.4802 65.7256 34.6194 65.8058 35.7601 65.81C51.7601 65.81 64.7001 51.05 64.7001 32.9C64.7001 14.75 51.7001 0 35.7401 0ZM24.1201 2.77L23.7701 2.96C23.3901 3.16 23.0201 3.36 22.6501 3.58L22.0401 3.93L21.1101 4.54H18.9501C20.5992 3.75205 22.3341 3.15808 24.1201 2.77ZM15.0201 6.77H18.1501L17.3201 7.51C17.0801 7.73 16.8701 7.96 16.6401 8.18L15.9801 8.87L15.3601 9.54C15.1701 9.75 15.0001 9.96 14.8201 10.17H11.0801C12.2824 8.92599 13.6019 7.80079 15.0201 6.81V6.77ZM9.11012 12.46H13.1101L12.7001 13.06C12.3701 13.56 12.0501 14.06 11.7001 14.6L11.4301 15.09C11.1701 15.54 10.9301 15.98 10.7001 16.44C10.6101 16.61 10.5301 16.77 10.4501 16.94V17H6.16012C7.00687 15.4022 7.9941 13.8829 9.11012 12.46ZM5.11012 19.27H9.46012C9.26012 19.76 9.07012 20.27 8.89012 20.77C8.89012 20.92 8.79012 21.05 8.74012 21.19C8.58012 21.68 8.43012 22.19 8.28012 22.67H3.82012C4.17296 21.5207 4.59029 20.3923 5.07012 19.29L5.11012 19.27ZM3.19012 24.96H7.67012C7.67012 25.1 7.67012 25.23 7.59012 25.37C7.51012 25.51 7.53012 25.66 7.49012 25.81C7.36012 26.53 7.23012 27.24 7.14012 27.97C7.13464 28.0065 7.13464 28.0435 7.14012 28.08C7.14012 28.17 7.14012 28.27 7.14012 28.37H2.64012C2.76585 27.2248 2.94942 26.0867 3.19012 24.96ZM2.28012 32.9C2.28012 32.14 2.28012 31.38 2.36012 30.64H6.88012C6.88012 31.37 6.81012 32.11 6.81012 32.85C6.81012 33.24 6.81012 33.61 6.81012 33.99H2.32012C2.30012 33.66 2.28012 33.29 2.28012 32.9ZM2.45012 36.31H6.95012C6.95012 36.79 7.04012 37.26 7.11012 37.73C7.10471 37.7631 7.10471 37.7969 7.11012 37.83C7.19012 38.47 7.29012 39.09 7.41012 39.71H2.95012C2.74012 38.6 2.57012 37.46 2.45012 36.31ZM3.45012 41.98H7.95012C7.95012 42.12 8.02012 42.26 8.05012 42.4C8.05465 42.4499 8.05465 42.5001 8.05012 42.55C8.24345 43.2167 8.45345 43.8833 8.68012 44.55C8.68012 44.69 8.77012 44.83 8.82012 44.97C8.87012 45.11 8.90012 45.22 8.95012 45.35H4.61012C4.17542 44.248 3.80152 43.123 3.49012 41.98H3.45012ZM8.22012 52.2C7.21058 50.7602 6.31774 49.242 5.55012 47.66H9.85012C10.0301 48.06 10.2101 48.45 10.4101 48.85C10.4901 49.02 10.5701 49.18 10.6601 49.35C10.8901 49.81 11.1301 50.26 11.3901 50.7L11.6601 51.19C11.8601 51.53 12.0701 51.86 12.2901 52.19L8.22012 52.2ZM10.0201 54.46H13.9501C14.0801 54.63 14.2001 54.8 14.3401 54.97C14.6801 55.4 15.0301 55.81 15.4001 56.22C15.6001 56.46 15.8101 56.68 16.0201 56.9L16.6901 57.59L16.9501 57.87H13.5001C12.2409 56.8392 11.0762 55.698 10.0201 54.46ZM16.7801 60.13H19.5201C19.6735 60.25 19.8235 60.36 19.9701 60.46C20.2001 60.64 20.4301 60.82 20.6701 60.98C21.1201 61.29 21.5701 61.59 22.0401 61.87C22.2401 62 22.4401 62.11 22.6501 62.23C23.0201 62.44 23.3901 62.65 23.7601 62.84L24.1201 63.04C21.5296 62.4819 19.0494 61.4986 16.7801 60.13ZM35.7801 63.54C34.888 63.5402 33.9966 63.4901 33.1101 63.39L32.6801 63.33H32.4901C32.1001 63.27 31.7101 63.21 31.3201 63.13H31.2301C30.8501 63.06 30.4801 62.98 30.1101 62.88H29.9401L28.9401 62.6L28.6301 62.5L27.7701 62.21L27.0801 61.94L26.6201 61.75C20.264 58.9256 15.1701 53.8602 12.3101 47.52L12.2401 47.34C12.0701 46.99 11.9101 46.63 11.7601 46.27C11.6901 46.12 11.6401 45.98 11.5801 45.83C11.5201 45.68 11.3501 45.27 11.2401 44.98C11.1301 44.69 11.1101 44.61 11.0401 44.43C10.9701 44.25 10.8701 43.92 10.7901 43.67C10.7101 43.42 10.6501 43.25 10.5901 43.04C10.5301 42.83 10.4401 42.55 10.3701 42.32L10.1901 41.65C10.1301 41.41 10.0701 41.17 10.0201 40.93C9.97012 40.69 9.91012 40.47 9.86012 40.24C9.81012 40.01 9.76012 39.76 9.71012 39.51C9.66012 39.26 9.62012 39.05 9.58012 38.81C9.54012 38.57 9.50012 38.31 9.47012 38.06C9.44012 37.81 9.39012 37.6 9.37012 37.36C9.35012 37.12 9.31012 36.82 9.28012 36.54C9.25012 36.26 9.28012 36.12 9.21012 35.9C9.14012 35.68 9.21012 35.27 9.14012 34.95V34.41C9.14012 33.91 9.14012 33.41 9.14012 32.9C9.14012 32.39 9.14012 31.9 9.14012 31.4V30.86C9.14012 30.54 9.14012 30.22 9.21012 29.91C9.28012 29.6 9.21012 29.48 9.28012 29.26C9.35012 29.04 9.33012 28.71 9.37012 28.44C9.41012 28.17 9.43012 27.98 9.47012 27.75C9.51012 27.52 9.54012 27.25 9.58012 27C9.62012 26.75 9.66012 26.53 9.71012 26.3L9.86012 25.57C9.91012 25.33 9.96012 25.11 10.0201 24.88C10.0801 24.65 10.1301 24.4 10.1901 24.16L10.3701 23.49C10.4401 23.25 10.5101 23.01 10.5901 22.77C10.6701 22.53 10.7201 22.35 10.7901 22.14C10.8601 21.93 10.9601 21.63 11.0401 21.38C11.1201 21.13 11.1801 21.01 11.2401 20.83C11.3001 20.65 11.4701 20.25 11.5801 19.97C11.6901 19.69 11.6901 19.68 11.7601 19.54C11.9101 19.18 12.0701 18.82 12.2401 18.47L12.3101 18.29C15.173 11.9915 20.2417 6.95842 26.5601 4.14L27.0201 3.96L27.7101 3.69L28.5701 3.4L28.8801 3.3C29.2201 3.19 29.5601 3.1 29.8801 3.02H30.0501L31.1701 2.77H31.2601C31.6501 2.7 32.0401 2.63 32.4301 2.58H32.6201L33.0501 2.52C33.9366 2.41991 34.828 2.36983 35.7201 2.37C50.4301 2.37 62.3901 16.11 62.3901 33C62.3901 49.89 50.4501 63.54 35.7401 63.54H35.7801Z" fill="black"/>
<path d="M15.5101 32.9C15.5101 32.19 15.5101 31.47 15.5901 30.77C15.6154 30.4764 15.525 30.1845 15.3382 29.9566C15.1514 29.7287 14.883 29.5828 14.5901 29.55C14.2976 29.5297 14.0084 29.622 13.7816 29.8079C13.5549 29.9937 13.4077 30.2592 13.3701 30.55C13.3101 31.31 13.2801 32.09 13.2801 32.86C13.2801 33.0088 13.3097 33.1561 13.3672 33.2933C13.4248 33.4305 13.5091 33.5548 13.6152 33.6591C13.7213 33.7634 13.8472 33.8455 13.9854 33.9006C14.1236 33.9556 14.2714 33.9827 14.4201 33.98C14.7216 33.9748 15.009 33.8513 15.2204 33.6362C15.4318 33.4211 15.5502 33.1316 15.5501 32.83L15.5101 32.9Z" fill="black"/>
<path d="M55.1901 26.46C55.2525 26.704 55.3947 26.9202 55.594 27.0742C55.7933 27.2282 56.0383 27.3112 56.2901 27.31H56.5701C56.8612 27.2346 57.1106 27.0472 57.2642 26.7888C57.4178 26.5303 57.463 26.2217 57.3901 25.93C57.2001 25.17 56.9801 24.42 56.7201 23.69C56.6722 23.5495 56.5971 23.4198 56.499 23.3083C56.401 23.1968 56.2819 23.1058 56.1486 23.0403C56.0154 22.9748 55.8706 22.9363 55.7224 22.9268C55.5742 22.9173 55.4256 22.9371 55.2851 22.985C55.1446 23.0329 55.0149 23.1081 54.9034 23.2061C54.792 23.3042 54.7009 23.4232 54.6354 23.5565C54.57 23.6897 54.5314 23.8346 54.5219 23.9827C54.5124 24.1309 54.5322 24.2795 54.5801 24.42C54.8001 25.09 55.0101 25.79 55.1901 26.49V26.46Z" fill="black"/>
<path d="M50.5201 48.81C50.0757 49.3651 49.6016 49.8959 49.1001 50.4C48.887 50.6137 48.7673 50.9032 48.7673 51.205C48.7673 51.5068 48.887 51.7963 49.1001 52.01C49.3146 52.2177 49.6015 52.3339 49.9001 52.3339C50.1987 52.3339 50.4856 52.2177 50.7001 52.01C51.2577 51.4518 51.7851 50.8643 52.2801 50.25C52.4698 50.0179 52.5594 49.72 52.5294 49.4219C52.4994 49.1237 52.3522 48.8496 52.1201 48.66C51.8864 48.4698 51.5869 48.3799 51.2871 48.4099C50.9873 48.4398 50.7115 48.5873 50.5201 48.82V48.81Z" fill="black"/>
<path d="M16.2901 39.33C16.2172 39.0383 16.0313 38.7875 15.7735 38.6327C15.5156 38.478 15.2069 38.4321 14.9151 38.505C14.6234 38.5779 14.3726 38.7638 14.2178 39.0216C14.0631 39.2795 14.0172 39.5883 14.0901 39.88C14.2801 40.64 14.5001 41.4 14.7501 42.13C14.8286 42.3542 14.9745 42.5485 15.1679 42.6864C15.3613 42.8243 15.5926 42.8989 15.8301 42.9C16.0147 42.9086 16.1985 42.8719 16.3656 42.7929C16.5326 42.714 16.6777 42.5953 16.7883 42.4473C16.8988 42.2993 16.9714 42.1264 16.9996 41.9438C17.0278 41.7612 17.0108 41.5745 16.9501 41.4C16.7201 40.73 16.5101 40.03 16.3401 39.33H16.2901Z" fill="black"/>
<path d="M46.9501 10.72C46.2896 10.2883 45.6052 9.89432 44.9001 9.54C44.7671 9.44714 44.6156 9.38403 44.4559 9.35495C44.2963 9.32587 44.1323 9.33151 43.975 9.37148C43.8178 9.41146 43.671 9.48483 43.5446 9.5866C43.4182 9.68838 43.3153 9.81618 43.2427 9.9613C43.1701 10.1064 43.1297 10.2655 43.1241 10.4276C43.1185 10.5898 43.1479 10.7513 43.2102 10.901C43.2726 11.0508 43.3665 11.1854 43.4856 11.2957C43.6046 11.4059 43.746 11.4893 43.9001 11.54C44.531 11.8619 45.1451 12.2157 45.7401 12.6C45.923 12.7242 46.1391 12.7904 46.3601 12.79C46.5576 12.7974 46.7536 12.7534 46.9289 12.6622C47.1042 12.5711 47.2528 12.4359 47.3601 12.27C47.4368 12.1418 47.4871 11.9995 47.508 11.8516C47.5289 11.7037 47.5199 11.553 47.4817 11.4086C47.4435 11.2642 47.3768 11.1288 47.2855 11.0106C47.1942 10.8923 47.0802 10.7935 46.9501 10.72Z" fill="black"/>
<path d="M43.9501 54.18C43.3204 54.5036 42.6727 54.7907 42.0101 55.04C41.7294 55.1497 41.503 55.3652 41.3796 55.6401C41.2562 55.915 41.2456 56.2274 41.3501 56.51C41.4315 56.7251 41.5766 56.9102 41.766 57.0406C41.9554 57.1711 42.1801 57.2406 42.4101 57.24C42.5462 57.2371 42.6811 57.2135 42.8101 57.17C43.5527 56.8802 44.2774 56.5463 44.9801 56.17C45.1342 56.1193 45.2756 56.0359 45.3947 55.9257C45.5137 55.8154 45.6076 55.6808 45.67 55.531C45.7324 55.3812 45.7617 55.2198 45.7561 55.0576C45.7505 54.8955 45.7101 54.7364 45.6375 54.5913C45.565 54.4462 45.462 54.3184 45.3356 54.2166C45.2093 54.1148 45.0625 54.0414 44.9052 54.0015C44.7479 53.9615 44.5839 53.9559 44.4243 53.9849C44.2647 54.014 44.1132 54.0771 43.9801 54.17L43.9501 54.18Z" fill="black"/>
<path d="M53.6001 17.33C53.1501 16.68 52.6801 16.04 52.1801 15.45C52.087 15.334 51.9717 15.2376 51.841 15.1666C51.7103 15.0957 51.5667 15.0514 51.4187 15.0365C51.2707 15.0216 51.1212 15.0364 50.9789 15.0799C50.8366 15.1234 50.7045 15.1948 50.5901 15.29C50.3574 15.4814 50.21 15.7572 50.18 16.057C50.15 16.3568 50.2399 16.6563 50.4301 16.89C50.8801 17.43 51.3101 18.01 51.7101 18.6C51.8805 18.8482 52.1414 19.0197 52.4368 19.0776C52.7322 19.1356 53.0386 19.0754 53.2901 18.91C53.5383 18.7396 53.7098 18.4787 53.7678 18.1833C53.8257 17.8879 53.7655 17.5815 53.6001 17.33Z" fill="black"/>
<path d="M57.1101 31.73C56.8016 31.7326 56.5065 31.8571 56.2893 32.0762C56.072 32.2953 55.9501 32.5914 55.9501 32.9C55.9501 33.6 55.9501 34.3 55.8701 34.99C55.8474 35.283 55.9387 35.5736 56.125 35.8009C56.3114 36.0282 56.5783 36.1748 56.8701 36.21H56.9601C57.2386 36.2118 57.5079 36.1108 57.7165 35.9262C57.925 35.7417 58.0581 35.4866 58.0901 35.21C58.1501 34.47 58.1801 33.71 58.1801 32.95V32.88C58.1789 32.7325 58.1482 32.5868 58.09 32.4513C58.0317 32.3158 57.947 32.1932 57.8409 32.0908C57.7348 31.9884 57.6093 31.9082 57.4718 31.8548C57.3343 31.8014 57.1876 31.776 57.0401 31.78L57.1101 31.73Z" fill="black"/>
<path d="M56.0601 40.6C55.775 40.5045 55.4636 40.5255 55.1939 40.6585C54.9242 40.7915 54.718 41.0257 54.6201 41.31C54.3901 41.99 54.1301 42.67 53.8501 43.31C53.7289 43.5859 53.7218 43.8986 53.8305 44.1797C53.9392 44.4608 54.1548 44.6874 54.4301 44.81C54.5764 44.8687 54.7325 44.8993 54.8901 44.9C55.1032 44.8896 55.3093 44.8206 55.4857 44.7006C55.6622 44.5807 55.8021 44.4143 55.8901 44.22C56.2001 43.5 56.4801 42.77 56.7301 42.02C56.8253 41.7362 56.804 41.4263 56.6709 41.1582C56.5378 40.8901 56.3037 40.6857 56.0201 40.59L56.0601 40.6Z" fill="black"/>
<path d="M38.0701 7.46C37.2968 7.36823 36.5188 7.32149 35.7401 7.32C35.5885 7.31447 35.4373 7.3401 35.2959 7.3953C35.1546 7.45051 35.026 7.53411 34.9182 7.64095C34.8105 7.74779 34.7257 7.8756 34.6693 8.01647C34.6129 8.15734 34.5859 8.3083 34.5901 8.46C34.5928 8.76326 34.7151 9.0532 34.9305 9.26671C35.1458 9.48022 35.4368 9.60001 35.7401 9.59999C36.4315 9.60173 37.1224 9.63844 37.8101 9.71H37.9501C38.2346 9.70308 38.5059 9.5891 38.71 9.39085C38.9141 9.19259 39.0359 8.92464 39.051 8.64051C39.0662 8.35639 38.9736 8.077 38.7918 7.85816C38.6099 7.63932 38.3522 7.49713 38.0701 7.46Z" fill="black"/>
<path d="M19.7501 47.16C19.5777 46.9107 19.3134 46.7401 19.0152 46.6857C18.717 46.6313 18.4094 46.6976 18.1601 46.87C17.9108 47.0424 17.7402 47.3067 17.6858 47.6049C17.6314 47.9031 17.6977 48.2107 17.8701 48.46C18.3101 49.12 18.7801 49.75 19.2701 50.35C19.378 50.4792 19.5124 50.5836 19.6643 50.656C19.8161 50.7285 19.9819 50.7674 20.1501 50.77C20.3654 50.7693 20.5761 50.7076 20.7577 50.5921C20.9394 50.4767 21.0847 50.3121 21.1768 50.1175C21.2688 49.923 21.3039 49.7063 21.278 49.4926C21.252 49.2789 21.1661 49.0769 21.0301 48.91C20.5724 48.35 20.1451 47.7658 19.7501 47.16Z" fill="black"/>
<path d="M17.0801 20.95C16.8042 20.8288 16.4915 20.8217 16.2104 20.9304C15.9293 21.0391 15.7027 21.2547 15.5801 21.53C15.2701 22.25 14.9801 22.99 14.7401 23.72C14.6912 23.8605 14.6706 24.0093 14.6793 24.1578C14.6881 24.3063 14.726 24.4516 14.7911 24.5854C14.8561 24.7192 14.9469 24.8388 15.0583 24.9374C15.1697 25.036 15.2994 25.1117 15.4401 25.16C15.5597 25.1986 15.6845 25.2189 15.8101 25.22C16.0451 25.219 16.2739 25.1455 16.4655 25.0094C16.657 24.8734 16.8018 24.6815 16.8801 24.46C17.1101 23.79 17.3701 23.11 17.6601 22.46C17.7213 22.3243 17.7549 22.1777 17.7588 22.0289C17.7627 21.8801 17.7369 21.732 17.6829 21.5933C17.6289 21.4545 17.5477 21.3279 17.4443 21.2209C17.3408 21.1139 17.217 21.0286 17.0801 20.97V20.95Z" fill="black"/>
<path d="M35.7401 56.19C35.0384 56.1902 34.3372 56.1501 33.6401 56.07C33.3417 56.0342 33.0414 56.1184 32.8051 56.304C32.5688 56.4897 32.4159 56.7616 32.3801 57.06C32.3443 57.3584 32.4285 57.6587 32.6142 57.895C32.7998 58.1313 33.0717 58.2842 33.3701 58.32C34.1564 58.4167 34.9479 58.4635 35.7401 58.46H35.8501C35.9975 58.4614 36.1437 58.433 36.2798 58.3763C36.4159 58.3197 36.5391 58.236 36.6419 58.1304C36.7447 58.0247 36.8251 57.8993 36.878 57.7618C36.931 57.6242 36.9555 57.4773 36.9501 57.33C36.9397 57.0223 36.8094 56.7308 36.5871 56.5178C36.3648 56.3049 36.068 56.1872 35.7601 56.19H35.7401Z" fill="black"/>
<path d="M20.8201 13.77C20.2801 14.32 19.7401 14.91 19.2401 15.52C19.0524 15.7547 18.9641 16.0536 18.994 16.3526C19.0239 16.6516 19.1697 16.9271 19.4001 17.12C19.6046 17.2843 19.8579 17.3757 20.1201 17.38C20.2885 17.3781 20.4544 17.3395 20.6064 17.267C20.7583 17.1944 20.8927 17.0897 21.0001 16.96C21.4601 16.4 21.9401 15.87 22.4301 15.37C22.5353 15.265 22.6188 15.1403 22.6758 15.0031C22.7327 14.8658 22.7621 14.7186 22.7621 14.57C22.7621 14.4214 22.7327 14.2742 22.6758 14.1369C22.6188 13.9997 22.5353 13.875 22.4301 13.77C22.2151 13.5593 21.9261 13.4413 21.6251 13.4413C21.3241 13.4413 21.0351 13.5593 20.8201 13.77Z" fill="black"/>
<path d="M28.7001 8.62C27.956 8.91379 27.2282 9.24761 26.5201 9.62C26.2948 9.7379 26.1155 9.92773 26.0105 10.1593C25.9055 10.3909 25.8809 10.6509 25.9407 10.898C26.0005 11.1452 26.1411 11.3652 26.3403 11.5232C26.5396 11.6812 26.7859 11.7681 27.0401 11.77C27.2201 11.7685 27.3977 11.7276 27.5601 11.65C28.1864 11.3265 28.8308 11.0393 29.4901 10.79C29.6423 10.7479 29.784 10.6746 29.9063 10.5748C30.0286 10.475 30.1289 10.351 30.2008 10.2104C30.2726 10.0699 30.3145 9.91592 30.3238 9.75833C30.3331 9.60075 30.3095 9.44295 30.2546 9.29495C30.1997 9.14694 30.1147 9.01195 30.0049 8.89852C29.8951 8.7851 29.763 8.69571 29.6168 8.63602C29.4707 8.57633 29.3138 8.54764 29.156 8.55177C28.9982 8.55589 28.8429 8.59275 28.7001 8.66V8.62Z" fill="black"/>
<path d="M27.6001 54.23C26.967 53.9084 26.3527 53.5512 25.7601 53.16C25.5077 52.997 25.2012 52.9403 24.9072 53.0021C24.6132 53.0639 24.3555 53.2392 24.1901 53.49C24.1077 53.614 24.0505 53.753 24.0219 53.8991C23.9934 54.0453 23.994 54.1956 24.0237 54.3415C24.0535 54.4874 24.1118 54.626 24.1952 54.7493C24.2787 54.8726 24.3857 54.9782 24.5101 55.06C25.173 55.4965 25.8608 55.8939 26.5701 56.25C26.7322 56.3285 26.91 56.3695 27.0901 56.37C27.2982 56.3707 27.5022 56.313 27.679 56.2034C27.8558 56.0938 27.9983 55.9367 28.0901 55.75C28.2265 55.4834 28.2515 55.1736 28.1596 54.8886C28.0678 54.6036 27.8665 54.3667 27.6001 54.23Z" fill="black"/>
<path d="M24.1449 48V42.9432L34.7557 33.6534C35.5511 32.9337 36.2282 32.2756 36.7869 31.679C37.3456 31.0729 37.7718 30.4669 38.0653 29.8608C38.3589 29.2453 38.5057 28.5777 38.5057 27.858C38.5057 27.053 38.3305 26.3665 37.9801 25.7983C37.6297 25.2206 37.1468 24.7756 36.5312 24.4631C35.9157 24.1506 35.2102 23.9943 34.4148 23.9943C33.6098 23.9943 32.9044 24.16 32.2983 24.4915C31.6922 24.8134 31.2188 25.2822 30.8778 25.8977C30.5464 26.5133 30.3807 27.2614 30.3807 28.142H23.7188C23.7188 26.1629 24.1638 24.4536 25.054 23.0142C25.9441 21.5748 27.1941 20.4669 28.804 19.6903C30.4233 18.9044 32.303 18.5114 34.4432 18.5114C36.6496 18.5114 38.5672 18.8807 40.196 19.6193C41.8248 20.358 43.0843 21.3902 43.9744 22.7159C44.8741 24.0322 45.3239 25.5616 45.3239 27.304C45.3239 28.4119 45.1013 29.5104 44.6562 30.5994C44.2112 31.6884 43.411 32.8911 42.2557 34.2074C41.1098 35.5237 39.4811 37.1004 37.3693 38.9375L33.8892 42.1477V42.3324H45.679V48H24.1449Z" fill="black"/>
</svg>
